<svg width="326" height="327" viewBox="0 0 326 327" fill="none" xmlns="http://www.w3.org/2000/svg">
<path d="M163.02 39.4999L286.764 163.244M163.02 39.4999L39.2766 163.244M163.02 39.4999L173.5 29.0202M163.02 39.4999L153 29.4795M286.764 163.244L163.02 286.987M286.764 163.244L297.008 153M286.764 163.244L297.008 173.487M163.02 286.987L39.2766 163.244M163.02 286.987L173.533 297.5M163.02 286.987L152.508 297.5M39.2766 163.244L29.533 172.987M39.2766 163.244L29.533 153.5M163.566 57.4999L269.632 163.566M163.566 57.4999L57.5 163.566M163.566 57.4999L192 29.066M163.566 57.4999L136 29.9338M269.632 163.566L163.566 269.632M269.632 163.566L297.698 135.5M269.632 163.566L297.698 191.632M163.566 269.632L57.5 163.566M163.566 269.632L190.5 296.566M163.566 269.632L135.198 298M57.5 163.566L29.434 135.5M57.5 163.566L29.066 192M163.277 4.49988L322.376 163.599L163.277 322.698L4.17767 163.599L163.277 4.49988ZM163.698 22.4999L305.119 163.921L163.698 305.343L22.2767 163.921L163.698 22.4999Z" stroke="#1C2835" stroke-width="5"/>
</svg>
